HIERARCHY
ROOT root
{
	OFFSET	0	13.1	24.9
	CHANNELS 6  Xposition Yposition Zposition Xrotation Yrotation Zrotation
	JOINT spine_1
	{
		OFFSET	0	9.99999	0
		CHANNELS 3  Xrotation Yrotation Zrotation
		JOINT spine_2
		{
			OFFSET	0	112	-10
			CHANNELS 3  Xrotation Yrotation Zrotation
			JOINT spine_3
			{
				OFFSET	0	206.5	19.3
				CHANNELS 3  Xrotation Yrotation Zrotation
				JOINT spine_4
				{
					OFFSET	0	110.4	14.6
					CHANNELS 3  Xrotation Yrotation Zrotation
					JOINT neck_1
					{
						OFFSET	0	71.8	-50.3
						CHANNELS 3  Xrotation Yrotation Zrotation
						JOINT neck_2
						{
							OFFSET	0	86.2	-25.8
							CHANNELS 3  Xrotation Yrotation Zrotation
							JOINT head_ee
							{
								OFFSET	0	179.8	-8.7
								CHANNELS 3  Xrotation Yrotation Zrotation
								End Site
								{
									OFFSET	1	0	0
								}
							}
						}
					}
					JOINT left_clavicle
					{
						OFFSET	-43.2	22.4	-70.8
						CHANNELS 3  Xrotation Yrotation Zrotation
						JOINT left_shoulder
						{
							OFFSET	-93.9	-5.79999	48.7
							CHANNELS 3  Xrotation Yrotation Zrotation
							JOINT left_elbow
							{
								OFFSET	-291.4	-30.8	15.2
								CHANNELS 3  Xrotation Yrotation Zrotation
								JOINT left_lowarm_twist
								{
									OFFSET	-110.7	-3.89999	13.6
									CHANNELS 3  Xrotation Yrotation Zrotation
									JOINT left_hand
									{
										OFFSET	-110.7	-3.89999	13.6
										CHANNELS 3  Xrotation Yrotation Zrotation
										JOINT left_ee
										{
											OFFSET	-80.8	-5.10001	12.1
											CHANNELS 3  Xrotation Yrotation Zrotation
											End Site
											{
												OFFSET	1	0	0
											}
										}
									}
								}
							}
						}
					}
					JOINT right_clavicle
					{
						OFFSET	43.2	22.4	-70.8
						CHANNELS 3  Xrotation Yrotation Zrotation
						JOINT right_shoulder
						{
							OFFSET	93.9	-5.79999	48.7
							CHANNELS 3  Xrotation Yrotation Zrotation
							JOINT right_elbow
							{
								OFFSET	291.4	-30.8	15.2
								CHANNELS 3  Xrotation Yrotation Zrotation
								JOINT right_lowarm_twist
								{
									OFFSET	110.7	-3.89999	13.6
									CHANNELS 3  Xrotation Yrotation Zrotation
									JOINT right_hand
									{
										OFFSET	110.7	-3.89999	13.6
										CHANNELS 3  Xrotation Yrotation Zrotation
										JOINT right_ee
										{
											OFFSET	80.8	-5.10001	12.1
											CHANNELS 3  Xrotation Yrotation Zrotation
											End Site
											{
												OFFSET	1	0	0
											}
										}
									}
								}
							}
						}
					}
				}
			}
		}
	}
	JOINT left_hip
	{
		OFFSET	-82.8	-127.5	0.300001
		CHANNELS 3  Xrotation Yrotation Zrotation
		JOINT left_knee
		{
			OFFSET	-28.2	-396.7	2.2
			CHANNELS 3  Xrotation Yrotation Zrotation
			JOINT left_ankle
			{
				OFFSET	-11.7	-411.3	35.4
				CHANNELS 3  Xrotation Yrotation Zrotation
				JOINT left_toes
				{
					OFFSET	0	-60	-88.6
					CHANNELS 3  Xrotation Yrotation Zrotation
					JOINT left_foot_ee
					{
						OFFSET	-22.5	-16.5	-42.2
						CHANNELS 3  Xrotation Yrotation Zrotation
						End Site
						{
							OFFSET	1	0	0
						}
					}
				}
			}
		}
	}
	JOINT right_hip
	{
		OFFSET	82.8	-127.5	0.300001
		CHANNELS 3  Xrotation Yrotation Zrotation
		JOINT right_knee
		{
			OFFSET	28.2	-396.7	2.2
			CHANNELS 3  Xrotation Yrotation Zrotation
			JOINT right_ankle
			{
				OFFSET	11.7	-411.3	35.4
				CHANNELS 3  Xrotation Yrotation Zrotation
				JOINT right_toes
				{
					OFFSET	0	-60	-88.6
					CHANNELS 3  Xrotation Yrotation Zrotation
					JOINT right_foot_ee
					{
						OFFSET	22.5	-16.5	-42.2
						CHANNELS 3  Xrotation Yrotation Zrotation
						End Site
						{
							OFFSET	1	0	0
						}
					}
				}
			}
		}
	}
}
MOTION
Frames: 16
Frame Time: 0.02
3816.91 657.03 -397.37 -38.8206 38.7282 31.6434 9.65255 -0.14927 -0.775624 9.65288 -0.0996142 -0.78355 9.65352 -0.0656349 -0.787125 9.6527 -0.189119 -0.766883 -15.736 8.38373 6.57237 -15.7509 12.2508 9.05834 -0.0 0.0 -0.0 0.644091 20.5276 3.32636 -36.2134 -32.6374 71.5678 0.204339 -5.78012 0.0103158 33.9407 -0.0721613 -4.27236 2.93714 -11.8742 14.9062 -0.0 0.0 -0.0 13.1697 27.1972 -25.9222 30.0274 -40.142 -56.7631 0.693922 18.9704 -0.11594 32.3793 0.0132935 4.08168 6.25247 -26.7121 -54.571 0.0 0.0 0.0 71.588 35.3914 -15.9772 -7.62174 0.23796 1.14464 -3.64015 -28.6729 0.674349 -26.5433 0.0 0.0 -0.0 0.0 -0.0 29.417 6.70014 -0.444386 -30.3859 -0.029091 -4.60878 36.9273 -25.07 4.86506 20.868 -0.0 -0.0 0.0 0.0 0.0 
3775.38 660.541 -400.891 -38.5523 38.2531 31.4401 9.80982 -0.223477 -1.29761 9.81074 -0.14046 -1.3092 9.81189 -0.0873575 -1.31381 9.8096 -0.293736 -1.28354 -14.1776 9.15674 7.12489 -14.1647 13.1605 9.64847 -0.0 0.0 -0.0 1.06306 21.1536 3.98614 -35.4206 -32.7629 71.9065 0.205596 -5.81545 0.0104429 33.8966 -0.0704275 -4.26699 3.1047 -12.6173 15.7273 -0.0 0.0 -0.0 12.7683 27.2783 -24.9876 26.3085 -39.4642 -56.4014 0.684329 18.7265 -0.112841 31.1075 -0.0308001 3.92523 6.46714 -27.1201 -56.9853 0.0 0.0 0.0 71.9856 35.576 -16.6408 -12.5723 0.310184 1.90061 -3.92843 -28.4995 0.726589 -26.2251 0.0 0.0 -0.0 0.0 -0.0 28.6836 9.37329 0.714766 -33.4476 0.103353 -5.05987 36.6073 -26.0047 4.86095 21.4216 -0.0 -0.0 0.0 0.0 0.0 
3746.02 662.339 -408.431 -38.7384 38.4472 31.598 9.93695 -0.249559 -1.54748 9.93827 -0.150595 -1.56022 9.93939 -0.090815 -1.56484 9.93613 -0.336783 -1.53087 -13.4483 10.4728 7.88124 -13.428 15.0844 10.6816 -0.0 0.0 -0.0 0.648292 21.5562 3.42775 -34.8986 -33.6703 72.6026 0.239284 -6.76013 0.0141325 33.189 -0.0431705 -4.18075 3.30675 -13.0899 16.9164 -0.0 0.0 -0.0 11.9169 27.4275 -23.0236 22.1226 -37.524 -58.2636 0.6553 17.9844 -0.103699 29.6303 -0.0776338 3.74237 6.63237 -27.9045 -58.9251 0.0 0.0 0.0 71.9214 35.8505 -17.1157 -16.1985 0.321533 2.45677 -2.39392 -27.8312 0.437267 -25.7444 0.0 0.0 -0.0 0.0 -0.0 27.3712 8.62827 1.87388 -33.2441 0.0937998 -5.0301 34.7403 -25.3592 4.64456 20.8406 -0.0 -0.0 0.0 0.0 0.0 
3715.81 664.88 -415.556 -37.9018 37.5253 30.1776 9.93596 -0.0348724 -1.42347 9.93708 0.055768 -1.4228 9.93327 0.110359 -1.41961 9.93047 -0.115204 -1.41923 -12.8847 11.9942 9.15297 -12.8301 17.0819 12.2602 -0.0 0.0 -0.0 1.12798 22.8831 4.21408 -36.1274 -33.8654 71.1971 0.199745 -5.65105 0.00985842 33.2919 -0.0470683 -4.19332 3.32642 -13.2297 16.9873 -0.0 0.0 -0.0 11.4798 26.5166 -22.1387 17.6863 -35.4021 -59.7207 0.671921 18.4101 -0.108889 29.7656 -0.0735412 3.75917 6.9103 -28.7317 -62.5295 0.0 0.0 0.0 70.8791 36.6038 -17.6825 -18.837 0.307665 2.86132 -0.76678 -26.8641 0.137756 -24.773 0.0 0.0 -0.0 0.0 -0.0 28.3015 10.8913 2.805 -36.4425 0.256091 -5.49382 31.5391 -26.8856 4.33416 20.5024 -0.0 -0.0 0.0 0.0 0.0 
3698.84 668.042 -421.243 -37.9126 37.7943 29.9627 10.03 -0.028364 -1.3469 10.031 0.0573923 -1.34598 10.0274 0.106823 -1.34296 10.0249 -0.106593 -1.34298 -12.958 12.7717 9.94455 -12.8844 18.0872 13.2479 -0.0 0.0 -0.0 1.78059 20.2944 4.96521 -33.6907 -31.7965 70.5519 0.224724 -6.35226 0.0124701 34.9343 -0.112324 -4.39285 3.43852 -10.5782 19.0368 -0.0 0.0 -0.0 11.7905 25.5912 -22.9487 15.975 -35.6306 -59.3608 0.668908 18.3331 -0.10794 28.3581 -0.114176 3.58398 6.96528 -29.7188 -63.1264 0.0 0.0 0.0 70.4314 35.8684 -17.746 -20.9339 0.283369 3.18213 -2.93025 -26.2078 0.525219 -25.2617 0.0 0.0 -0.0 0.0 -0.0 28.5634 13.9484 2.62021 -37.5835 0.320229 -5.65699 30.8812 -26.0911 4.23672 21.4277 -0.0 -0.0 0.0 0.0 0.0 
3678.16 670.793 -428.963 -37.688 38.4191 30.2124 9.91231 -0.180697 -1.41384 9.91342 -0.0903733 -1.42247 9.9132 -0.035233 -1.42491 9.91046 -0.259806 -1.40147 -12.8834 13.2136 9.3205 -12.8721 19.3085 12.7887 -0.0 0.0 -0.0 1.75523 20.2543 4.9256 -32.8721 -31.3702 69.361 0.324207 -9.12414 0.0258692 35.0233 -0.116025 -4.40361 3.62231 -8.65986 21.2488 -0.0 0.0 -0.0 11.2029 25.7064 -21.6018 12.9697 -34.2793 -60.9478 0.633967 17.4349 -0.0972094 28.5258 -0.109561 3.6049 6.97093 -28.7323 -63.4182 0.0 0.0 0.0 69.054 35.9843 -17.6795 -22.5919 0.255856 3.43505 0.215588 -24.5335 -0.0375734 -23.9877 0.0 0.0 -0.0 0.0 -0.0 28.3455 12.8892 2.71528 -38.4939 0.373743 -5.78629 29.2373 -25.5542 4.03206 21.8742 -0.0 -0.0 0.0 0.0 0.0 
3666.26 675.713 -441.603 -37.8971 40.6023 31.2731 9.61029 -0.231753 -1.31807 9.61124 -0.147418 -1.33014 9.61259 -0.0888191 -1.33533 9.61022 -0.298578 -1.30456 -13.2231 12.9563 10.3094 -13.1411 18.2759 13.6876 -0.0 0.0 -0.0 2.21827 17.2578 5.44765 -31.7311 -30.9767 68.4385 0.380882 -10.685 0.0356186 37.244 -0.21373 -4.67016 3.48591 -7.09669 20.9767 -0.0 0.0 -0.0 11.2607 23.6906 -21.9383 10.7741 -34.4795 -60.6516 0.669369 18.3449 -0.108085 27.019 -0.148828 3.41643 7.0989 -28.7121 -65.4249 0.0 0.0 0.0 66.812 34.1896 -16.6823 -23.7413 0.23249 3.60989 -0.461695 -23.7006 0.0798758 -24.0244 0.0 0.0 -0.0 0.0 -0.0 29.809 17.1397 0.117923 -42.5842 0.639306 -6.35621 28.1433 -26.9702 3.93757 21.3905 -0.0 -0.0 0.0 0.0 0.0 
3646.79 682.115 -447.883 -39.0968 40.9073 32.5686 9.54342 -0.229196 -1.12264 9.54411 -0.1573 -1.13494 9.54572 -0.105938 -1.14088 9.54402 -0.284779 -1.10984 -13.0644 12.7908 8.39594 -13.1032 19.1204 11.8268 -0.0 0.0 -0.0 2.19439 15.0063 5.2819 -28.7326 -31.113 67.6822 0.473328 -13.1961 0.0547499 38.8163 -0.289129 -4.85653 3.45185 -4.65054 21.8114 -0.0 0.0 -0.0 10.9278 23.7362 -21.1797 7.03018 -34.3951 -62.2813 0.671502 18.3994 -0.108757 26.9507 -0.150491 3.40786 7.10057 -26.1795 -65.854 0.0 0.0 0.0 63.8906 33.1657 -14.7135 -21.1513 0.280178 3.21534 1.52939 -24.0193 -0.263988 -23.5281 0.0 0.0 -0.0 0.0 -0.0 32.2217 21.4794 -1.81862 -45.3334 0.840459 -6.72819 26.718 -27.329 3.77296 21.2398 -0.0 -0.0 0.0 0.0 0.0 
3629.72 684.763 -456.338 -39.4489 42.1556 33.5804 9.39868 -0.225277 -0.945233 9.39916 -0.164676 -0.957651 9.40087 -0.118865 -0.964409 9.39968 -0.269677 -0.933537 -12.4181 12.6891 8.33324 -12.4294 18.8279 11.6276 -0.0 0.0 -0.0 2.30443 13.8225 5.39095 -26.8645 -30.872 67.0008 0.582716 -16.1015 0.0824225 40.1 -0.354476 -5.00714 3.35598 -2.47447 22.0432 -0.0 0.0 -0.0 11.2714 22.7514 -22.0494 6.23163 -35.9912 -60.0784 0.583291 16.1165 -0.0825819 26.2302 -0.167403 3.31739 7.04611 -25.3033 -65.016 0.0 0.0 0.0 61.1064 31.691 -13.6115 -18.9837 0.306347 2.8838 -1.2581 -23.6553 0.218022 -24.4847 0.0 0.0 -0.0 0.0 -0.0 34.4201 24.4118 -4.39841 -49.2282 1.15562 -7.23803 26.7017 -25.3297 3.72401 20.688 -0.0 -0.0 0.0 0.0 0.0 
3604.92 685.206 -468.873 -37.3269 42.3893 30.3919 9.19907 -0.0265325 -0.295264 9.19912 -0.0076904 -0.296354 9.19907 0.00748679 -0.29636 9.19895 -0.0394114 -0.293823 -13.146 12.3736 6.7632 -13.2674 19.3585 10.1854 -0.0 0.0 -0.0 1.5021 13.0932 4.0224 -25.8703 -32.7058 65.8557 0.695037 -18.9987 0.116302 40.9139 -0.397649 -5.10186 3.27918 -0.962719 22.1108 -0.0 0.0 -0.0 10.8739 21.3566 -21.2663 0.447522 -33.5395 -64.4148 0.653171 17.9297 -0.103043 27.0965 -0.14693 3.42615 6.9097 -20.2118 -62.6019 0.0 0.0 0.0 57.0029 31.7189 -12.6212 -22.1824 0.263332 3.37265 9.03747 -24.3325 -1.52405 -21.5817 0.0 0.0 -0.0 0.0 -0.0 38.2348 29.1965 -7.63065 -56.2673 1.81069 -8.10153 26.8531 -25.8737 3.75466 21.754 -0.0 -0.0 0.0 0.0 0.0 
3582.17 687.481 -477.751 -35.7352 42.3218 28.8292 9.2251 -0.00566634 -0.392012 9.22519 0.0192897 -0.391578 9.22489 0.0391299 -0.390095 9.22467 -0.022969 -0.391379 -14.0759 12.4952 6.99653 -14.2328 19.6155 10.6099 -0.0 0.0 -0.0 1.85683 13.6325 4.64587 -20.9395 -31.5501 63.7848 0.797768 -21.5634 0.15192 41.9937 -0.457002 -5.22658 3.01353 2.24354 21.467 -0.0 0.0 -0.0 10.4186 20.0973 -20.3353 -3.55344 -31.6414 -65.9025 0.654101 17.9536 -0.103329 27.6614 -0.132695 3.4969 6.71161 -16.8898 -59.1531 0.0 0.0 0.0 54.4269 31.4509 -12.5936 -23.949 0.227894 3.64142 12.8138 -24.4357 -2.12821 -20.7824 0.0 0.0 -0.0 0.0 -0.0 39.1339 29.1967 -8.57194 -58.7255 2.06395 -8.38354 27.3969 -22.4403 3.74842 23.4074 -0.0 -0.0 0.0 0.0 0.0 
3552.96 693.647 -489.078 -31.6928 42.3902 25.6451 8.87107 0.225937 -0.594668 8.87123 0.263319 -0.579087 8.86832 0.29588 -0.563146 8.86794 0.20323 -0.602806 -14.8671 12.0196 7.036 -15.0277 18.8195 10.6277 -0.0 0.0 -0.0 3.17202 15.1948 6.8616 -23.01 -31.7551 59.2872 0.88248 -23.6125 0.184464 42.5981 -0.491254 -5.29591 2.94513 4.15124 21.701 -0.0 0.0 -0.0 10.456 18.7033 -20.5146 -7.21191 -28.505 -65.7476 0.622532 17.139 -0.0938112 29.1358 -0.0922571 3.68089 6.53755 -11.1887 -55.197 0.0 0.0 0.0 50.1185 33.1563 -13.7055 -26.4771 0.162799 4.02391 16.8954 -26.1632 -2.80436 -19.9078 0.0 0.0 -0.0 0.0 -0.0 45.629 25.9902 -10.0316 -69.878 3.35553 -9.51754 25.3827 -13.8707 3.40203 23.5909 -0.0 -0.0 0.0 0.0 0.0 
3538.26 695.32 -500.062 -30.127 43.6186 24.8723 8.57241 0.251475 -0.329523 8.57242 0.271934 -0.312853 8.57093 0.290848 -0.295352 8.57089 0.240553 -0.337579 -15.1402 11.0623 5.76573 -15.3249 17.7772 9.16377 -0.0 0.0 -0.0 2.39328 15.4818 5.62693 -19.1359 -32.9779 59.5389 0.951941 -25.2464 0.213194 44.1553 -0.582853 -5.47283 2.68341 4.84673 20.1049 -0.0 0.0 -0.0 10.2174 17.021 -20.0791 -9.02413 -27.3904 -66.5855 0.562319 15.5657 -0.076857 30.1771 -0.0608471 3.8102 6.47265 -6.98072 -52.7369 0.0 0.0 0.0 47.2892 32.6007 -13.823 -27.6196 0.127854 4.19576 20.1706 -27.7176 -3.34932 -19.2669 0.0 0.0 -0.0 0.0 -0.0 48.8641 23.9343 -10.5776 -75.2904 4.05633 -9.97307 24.2924 -8.65659 3.25013 23.7851 -0.0 -0.0 0.0 0.0 0.0 
3514.21 699.99 -505.324 -29.6245 45.8974 26.093 8.41785 -0.0130416 -0.83567 8.41824 0.0401588 -0.834807 8.41698 0.0941827 -0.830449 8.41602 -0.0381484 -0.834901 -15.8078 9.53309 4.21202 -15.9973 15.8343 7.28276 -0.0 0.0 -0.0 4.09489 16.2367 8.35918 -19.3922 -33.1754 57.4526 0.913876 -24.3563 0.197226 43.0493 -0.517299 -5.34742 2.60367 4.06313 19.253 -0.0 0.0 -0.0 9.49069 14.3562 -18.5931 -11.0072 -26.9882 -65.2425 0.574488 15.8857 -0.0801553 30.8529 -0.0392077 3.8938 6.20242 -2.79574 -47.9376 0.0 0.0 0.0 44.122 30.7625 -13.1293 -27.6579 0.126625 4.2015 23.1801 -29.0586 -3.84324 -17.7403 0.0 0.0 -0.0 0.0 -0.0 50.0005 19.4288 -8.2925 -78.5412 4.49681 -10.2143 19.3714 -5.48182 2.65363 21.7578 -0.0 -0.0 0.0 0.0 0.0 
3500.58 701.684 -514.301 -27.7303 44.1338 24.7607 8.34384 0.152912 -0.923356 8.34429 0.211355 -0.911756 8.3402 0.271229 -0.895772 8.3391 0.126361 -0.927363 -15.7366 9.64171 4.1453 -15.9334 16.0736 7.24924 -0.0 0.0 -0.0 4.07851 15.7564 8.32886 -16.7942 -34.6209 55.2359 0.9769 -25.8231 0.223953 43.9576 -0.570958 -5.45051 2.61518 4.05363 19.3302 -0.0 0.0 -0.0 9.32182 15.0476 -18.1899 -13.3128 -24.9007 -66.8349 0.530402 14.7216 -0.0685188 30.4315 -0.0528159 3.8417 6.19168 -0.989971 -46.9449 0.0 0.0 0.0 43.4799 34.1632 -15.4989 -27.4465 0.133368 4.16977 26.1602 -29.9676 -4.30383 -17.9875 0.0 0.0 -0.0 0.0 -0.0 52.7839 20.0294 -11.8296 -78.9439 4.55231 -10.2424 17.563 -3.68242 2.42906 21.5103 -0.0 -0.0 0.0 0.0 0.0 
3487.42 703.09 -518.133 -27.7247 44.9602 24.6626 8.27657 0.158112 -0.740574 8.27685 0.204915 -0.729013 8.2738 0.253531 -0.713564 8.27312 0.137659 -0.744647 -15.3492 8.48055 3.09488 -15.5104 14.4202 5.80203 -0.0 0.0 -0.0 4.23595 14.8052 8.57492 -15.1351 -34.9474 54.4493 1.03281 -27.0948 0.248867 44.1431 -0.582117 -5.47145 2.46882 3.28725 18.0166 -0.0 0.0 -0.0 9.01752 12.7281 -17.6189 -13.5435 -25.1163 -66.5022 0.505453 14.0573 -0.0623186 30.8392 -0.0396544 3.89212 6.02386 1.00122 -44.3153 0.0 0.0 0.0 40.8706 32.0382 -13.4776 -27.3467 0.136514 4.15476 26.7679 -30.7531 -4.43069 -17.2078 0.0 0.0 -0.0 0.0 -0.0 53.9255 19.1429 -13.4498 -77.4294 4.34464 -10.1346 17.0825 -1.88154 2.37354 21.1299 -0.0 -0.0 0.0 0.0 0.0 
